<?xml version="1.0" encoding="UTF-8" standalone="no"?>
<svg
   xmlns:dc="http://purl.org/dc/elements/1.1/"
   xmlns:cc="http://creativecommons.org/ns#"
   xmlns:rdf="http://www.w3.org/1999/02/22-rdf-syntax-ns#"
   xmlns:svg="http://www.w3.org/2000/svg"
   xmlns="http://www.w3.org/2000/svg"
   xmlns:sodipodi="http://sodipodi.sourceforge.net/DTD/sodipodi-0.dtd"
   xmlns:inkscape="http://www.inkscape.org/namespaces/inkscape"
   width="210mm"
   height="297mm"
   viewBox="0 0 210 297"
   version="1.1"
   id="svg8"
   inkscape:version="1.0.1 (0767f8302a, 2020-10-17)"
   sodipodi:docname="logo.svg">
  <defs
     id="defs2" />
  <sodipodi:namedview
     id="base"
     pagecolor="#ffffff"
     bordercolor="#666666"
     borderopacity="1.0"
     inkscape:pageopacity="0.0"
     inkscape:pageshadow="2"
     inkscape:zoom="0.37548808"
     inkscape:cx="424.13175"
     inkscape:cy="842.9011"
     inkscape:document-units="mm"
     inkscape:current-layer="layer2"
     inkscape:document-rotation="0"
     showgrid="false"
     inkscape:window-width="1920"
     inkscape:window-height="964"
     inkscape:window-x="1920"
     inkscape:window-y="27"
     inkscape:window-maximized="1" />
  <metadata
     id="metadata5">
    <rdf:RDF>
      <cc:Work
         rdf:about="">
        <dc:format>image/svg+xml</dc:format>
        <dc:type
           rdf:resource="http://purl.org/dc/dcmitype/StillImage" />
        <dc:title></dc:title>
      </cc:Work>
    </rdf:RDF>
  </metadata>
  <g
     inkscape:label="background"
     inkscape:groupmode="layer"
     id="layer1"
     style="display:inline">
    <rect
       style="fill:#1a1a1a;stroke:#000000;stroke-width:0.264583;stroke-opacity:1"
       id="rect947"
       width="209.71054"
       height="296.67816"
       x="0.15862499"
       y="0.18888132"
       ry="0" />
  </g>
  <g
     inkscape:groupmode="layer"
     id="layer2"
     inkscape:label="skull">
    <g
       id="g964"
       style="stroke:#ffffff;stroke-opacity:1">
      <path
         style="fill:none;stroke:#ffffff;stroke-width:0.264583px;stroke-linecap:butt;stroke-linejoin:miter;stroke-opacity:1"
         d="m 43.218777,99.943868 c 4.037348,3.581442 9.44828,7.206892 11.718554,8.075892 2.589647,1.17887 12.881524,3.23696 14.743676,9.59732 -20.344534,16.72332 -34.465781,27.65788 -40.541184,38.62058 -6.264744,11.30436 -5.992718,20.82494 -3.833509,27.84556 4.829914,15.70435 25.873541,17.82263 37.15755,14.31815 -5.983171,11.80636 -29.901224,13.16548 -40.631148,6.60219 -23.2665959,-15.84443 -19.5877461,-47.86335 -7.497285,-71.13922 9.650403,-18.57841 21.919457,-28.6007 28.883346,-33.920472 z"
         id="path93"
         sodipodi:nodetypes="cccssccsc" />
      <path
         style="fill:none;stroke:#ffffff;stroke-width:0.264583px;stroke-linecap:butt;stroke-linejoin:miter;stroke-opacity:1"
         d="m 141.46345,111.36862 c 1.3136,-8.77807 8.81012,-21.664829 15.65503,-27.643763 49.59016,36.540903 47.07217,77.346153 47.07217,77.346153 -0.46617,43.71293 -48.11432,39.86518 -53.5535,30.42078 38.27373,2.70088 31.65049,-27.8636 31.65049,-27.8636 0.12987,-16.60691 -30.02405,-39.44174 -40.82419,-52.25957 z"
         id="path919"
         sodipodi:nodetypes="cccccc" />
      <path
         style="display:inline;fill:none;stroke:#ffffff;stroke-width:0.264583px;stroke-linecap:butt;stroke-linejoin:miter;stroke-opacity:1"
         d="m 82.265068,188.09284 c 2.020296,-0.57582 7.738415,5.42591 8.608075,6.3713 -0.4843,2.78722 -2.2664,41.32125 -2.2664,41.32125 l -1.07547,0.63292 c 0.012,-5.88174 -6.746889,-35.71123 -5.266205,-48.32547 z"
         id="path921"
         sodipodi:nodetypes="ccccc" />
      <path
         style="fill:none;stroke:#ffffff;stroke-width:0.264583px;stroke-linecap:butt;stroke-linejoin:miter;stroke-opacity:1"
         d="m 119.19128,195.32949 c 0.27414,-0.85858 3.91454,-3.86737 4.55983,-4.20657 1.53419,1.13645 3.52621,10.90106 4.39579,14.51628 0.22163,3.81613 -1.66579,12.99529 -1.67124,18.72783 0.66256,7.40458 -0.15937,22.81016 -0.42999,27.55983 -0.47256,0.5522 -1.05018,3.18445 -2.19037,3.61996 -0.0664,-14.28431 -0.57654,-22.37441 -1.19826,-24.60709 -0.73062,-5.47222 -0.0532,-16.61061 -1.28387,-21.47129 -2.0746,-4.69168 -2.24539,-12.26321 -2.18189,-14.13895 z"
         id="path940"
         sodipodi:nodetypes="ccccccccc" />
      <path
         style="fill:none;stroke:#ffffff;stroke-width:0.264583px;stroke-linecap:butt;stroke-linejoin:miter;stroke-opacity:1"
         d="m 60.37586,29.4714 c 1.217065,-1.619251 7.792351,-7.585707 9.771875,-8.240816 3.281078,-0.05902 9.956458,-1.387967 11.447573,0.716258 1.685616,4.252595 -5.901496,9.778502 -5.200377,13.315081 0.41543,1.098317 7.963519,3.76765 9.307893,5.309981 0.578525,2.360041 -2.337278,7.690062 -2.017479,9.179724 0.248055,0.831807 4.228378,1.623025 5.653584,1.394378 1.626185,-2.197713 5.221106,-13.81664 4.17857,-14.900878 -0.969299,-1.158646 -6.21768,-0.942363 -8.060338,-2.291218 -0.287666,-5.362848 3.219148,-10.799772 5.772771,-12.135697 4.013536,-0.0031 8.603037,-1.260197 14.608748,-2.849545 1.34316,-0.442765 7.66562,1.357582 9.85922,3.043295 2.31357,1.457662 5.16925,-2.310979 6.07447,-2.249038 5.70929,0.435591 11.06625,-0.158287 11.42889,-0.61848 0.15056,-0.194838 3.4501,-1.94903 4.50188,-1.793619 2.93654,0.838671 4.33713,5.596768 4.26008,5.930782 -0.26508,2.231272 -0.64029,4.125529 -0.64029,4.125529 0.55044,1.004089 2.67886,5.736601 2.21274,7.383952 0.75883,1.181028 -3.52141,1.539891 -5.62098,8.46094 -0.77746,2.562835 -1.08228,3.240639 -3.17308,6.101877 -2.56186,2.661408 -8.6581,4.685189 -10.13732,4.991301 -1.43311,0.05517 -2.12892,0.04716 -3.54187,0.09954 -1.80883,0.705493 -2.97169,3.283987 -4.61539,3.582861 -0.12639,2.759701 -12.06619,9.302575 -13.62383,11.787729 -0.30103,3.150035 0.58074,2.87274 1.15405,6.285289 0.68009,4.048132 -1.86163,3.43839 -0.81038,6.52754 l 2.01041,3.558345 c -3.31255,13.247943 1.03844,13.111638 1.03844,13.111638 2.71826,0.02469 2.37482,-9.772799 4.52387,-11.419721 0.14288,-1.971763 21.35235,-10.427346 22.54094,-14.615953 5.91909,-5.390586 6.59194,-17.904059 7.38288,-19.149095 3.27847,-3.766034 2.41568,-12.895871 7.37505,-12.292407 1.33714,0.916128 -1.12548,14.655949 -0.82345,17.103244 0.14345,0.829321 4.41414,4.119537 4.73751,4.799984 -0.6489,1.434548 -0.0121,9.808964 0.63523,11.017596 -10.87069,7.314204 -18.13458,26.406963 -19.4326,31.753633 -0.91397,1.95312 -9.75849,7.75355 -10.55269,10.78093 -0.71923,5.89427 2.78689,9.75418 2.78689,9.75418 1.52107,5.46429 0.19293,11.82766 0.0807,13.52406 -0.31043,2.04515 -2.87455,4.73239 -3.30789,6.33131 -4.16689,23.39486 -3.4564,31.7391 -0.7132,34.64968 0.24613,5.77812 -7.48876,10.36368 -8.6945,11.78629 -0.12792,6.27528 2.02699,12.24621 2.86668,14.53016 0.15571,1.50871 0.0901,18.22347 -0.003,18.74314 -0.97776,23.34881 2.90582,11.17795 1.93985,44.02967 -0.93555,2.32146 -6.77253,6.92842 -9.08156,7.91524 -1.61486,-19.03616 1.05509,-32.46584 2.06046,-40.084 0.2338,-9.26761 -0.39251,-31.52857 -1.07514,-36.32043 -0.23068,-0.67584 -1.34665,-3.22086 -1.34665,-3.22086 0.45722,-19.6364 -2.28234,-16.03753 -1.83621,-31.31087 5.05329,-8.19095 5.38104,-15.72007 7.53746,-23.45549 2.61852,-9.39308 4.44014,-14.19206 2.85142,-16.33619 -0.405,-0.66805 -1.87,2.7131 -4.73184,4.31113 -2.15135,1.21607 -6.44418,5.03772 -7.08676,6.45667 -1.63456,3.49767 -0.20416,4.68712 -0.20416,4.68712 3.4781,6.56323 0.22794,13.28347 -0.58401,20.08765 -0.14052,1.17758 -1.543,0.62119 -1.64167,0.14004 -2.8826,-11.52987 -3.919791,-14.28439 -3.366988,-17.10233 0.247421,-1.26124 1.453228,-1.7823 1.639938,-4.65235 -0.832328,-2.78931 -3.593105,-4.42396 -5.389967,-5.74644 -3.880673,-3.72263 -3.99372,-6.63132 -5.155025,-6.18409 -2.818715,1.15179 -2.382661,18.13956 -2.382661,18.13956 3.609777,4.07478 9.650407,12.16119 9.850436,16.19768 1.006047,4.19381 -0.845904,19.01852 2.835937,23.72449 -0.41897,3.18338 2.69861,14.38605 2.69861,14.38605 -1.5728,16.85773 -0.55537,51.54097 -3.13267,70.34985 -2.600357,-1.01549 -7.169861,-5.46336 -8.174145,-6.68695 2.954099,-27.94151 6.14147,-63.64338 5.456096,-71.87974 -0.605699,-3.99207 -13.958656,-14.82817 -15.625291,-18.09888 2.361129,-22.30617 0.711668,-37.84785 0.162779,-40.4463 -4.196182,-4.81924 -2.639861,-3.81367 -4.258687,-6.05578 -1.661067,-11.92596 0.434941,-20.34644 -1.57415,-20.29004 -1.560573,-0.37046 -5.802284,-0.4874 -7.357824,-1.0404 -3.251443,-0.40413 -14.302636,-13.191197 -16.675306,-14.553751 -0.206962,-1.283132 2.088338,-5.355274 1.437724,-6.596941 -1.68427,-1.725131 -5.336086,-9.514617 -5.340343,-10.871187 5.601076,-8.000438 5.165073,-22.953097 10.43181,-22.483153 6.461253,2.496304 1.472475,14.265803 2.369434,20.544996 1.5962,4.60906 9.458461,7.194136 10.28587,7.750278 6.178521,5.931789 9.137229,8.681969 14.695487,9.939314 3.475238,1.475365 3.388954,14.262664 7.027666,11.579144 l 1.794516,-1.2698 C 95.275004,99.983652 90.922445,78.767819 90.922445,78.767819 86.849402,71.579866 89.662919,72.435813 85.998692,63.304424 85.338848,62.280328 77.821895,60.018859 76.798959,58.915191 74.99309,57.953668 74.636206,56.6699 64.164177,48.817733 63.090865,47.910819 61.143904,44.367348 60.7537,42.983887 60.261421,40.590906 60.37586,29.4714 60.37586,29.4714 Z"
         id="path943"
         sodipodi:nodetypes="ccccccccccccccccccscccccscccccccccccccccccccccccccsccccscscccccccccccccccccccccccccccccc" />
    </g>
  </g>
</svg>
